<?xml version="1.0" standalone="no"?>
<!DOCTYPE svg PUBLIC "-//W3C//DTD SVG 20010904//EN"
 "http://www.w3.org/TR/2001/REC-SVG-20010904/DTD/svg10.dtd">
<svg version="1.0" xmlns="http://www.w3.org/2000/svg"
 width="851.000000pt" height="748.000000pt" viewBox="0 0 851.000000 748.000000"
 preserveAspectRatio="xMidYMid meet">

<g transform="translate(0.000000,748.000000) scale(0.100000,-0.100000)"
fill="#000000" stroke="none">
<path d="M4030 7059 c-19 -4 -73 -13 -120 -18 -108 -12 -248 -36 -325 -55 -33
-8 -89 -22 -125 -31 -36 -8 -74 -20 -85 -25 -11 -5 -36 -12 -55 -16 -19 -3
-41 -10 -50 -14 -8 -5 -44 -18 -80 -30 -36 -12 -74 -26 -85 -30 -11 -5 -45
-19 -75 -31 -52 -20 -311 -146 -355 -172 -42 -25 -310 -201 -315 -207 -3 -4
-21 -17 -41 -31 -38 -26 -92 -69 -198 -160 -65 -56 -277 -264 -316 -310 -83
-99 -158 -194 -196 -249 -24 -36 -47 -66 -51 -68 -5 -2 -8 -10 -8 -17 0 -7 -4
-15 -8 -17 -8 -3 -92 -134 -92 -143 0 -3 -12 -24 -26 -46 -42 -67 -104 -189
-104 -204 0 -8 -4 -15 -10 -15 -5 0 -10 -7 -10 -15 0 -8 -4 -23 -10 -33 -19
-35 -60 -132 -66 -159 -4 -16 -10 -32 -14 -38 -3 -5 -15 -37 -25 -70 -10 -33
-21 -69 -26 -80 -4 -11 -15 -47 -25 -80 -9 -33 -20 -69 -24 -80 -4 -11 -13
-47 -20 -80 -6 -33 -16 -80 -21 -105 -20 -96 -58 -332 -66 -410 -3 -30 -10
-58 -17 -62 -6 -4 -109 -8 -229 -8 l-217 0 2 -222 3 -223 218 -1 c153 -1 221
-4 230 -13 6 -6 13 -35 14 -64 4 -76 42 -323 62 -402 5 -22 16 -67 24 -100 17
-67 53 -190 67 -220 5 -11 16 -42 25 -70 18 -53 40 -107 78 -195 50 -115 69
-157 79 -175 15 -25 88 -163 102 -192 6 -13 14 -23 19 -23 4 0 7 -5 7 -10 0
-6 13 -29 30 -52 16 -22 30 -47 30 -55 0 -7 5 -13 10 -13 6 0 10 -5 10 -11 0
-6 6 -17 13 -24 6 -8 23 -30 37 -50 117 -167 328 -405 495 -556 67 -59 264
-210 335 -255 25 -16 47 -31 50 -35 15 -17 293 -172 405 -226 252 -121 626
-233 920 -277 213 -32 307 -39 510 -39 216 0 329 9 545 44 372 61 832 231
1171 432 322 191 720 554 952 870 347 473 557 1027 627 1656 6 52 13 97 16
100 3 4 81 6 172 6 l167 0 3 228 2 227 -157 0 c-112 1 -163 4 -175 13 -12 10
-21 47 -33 143 -9 71 -25 174 -37 229 -11 55 -22 111 -25 125 -18 90 -85 307
-136 440 -61 161 -170 377 -273 542 -71 113 -148 226 -164 238 -3 3 -41 48
-84 100 -120 146 -278 305 -471 473 -29 25 -193 149 -231 175 -195 130 -370
227 -549 301 -55 23 -107 45 -115 50 -9 5 -30 12 -48 15 -17 4 -34 12 -37 17
-4 5 -14 9 -23 9 -9 0 -29 6 -44 14 -14 8 -46 17 -70 21 -24 4 -51 11 -60 16
-16 9 -82 25 -223 55 -138 30 -242 46 -360 55 -66 5 -139 14 -163 19 -50 12
-412 11 -462 -1z m535 -380 c423 -34 831 -159 1195 -367 110 -62 385 -252 410
-282 3 -3 41 -37 85 -76 63 -55 164 -154 264 -260 3 -2 -3 -10 -12 -17 -23
-16 -3977 -24 -4137 -8 -71 8 -116 8 -140 1 -33 -9 -100 4 -100 20 0 14 312
311 390 372 398 306 762 474 1245 574 286 59 478 69 800 43z m2241 -1368 c22
-36 40 -72 42 -78 2 -7 7 -13 10 -13 4 0 16 -20 27 -45 11 -25 22 -45 25 -45
3 0 14 -20 25 -45 11 -25 23 -45 28 -45 4 0 7 -9 7 -19 0 -11 4 -22 9 -26 5
-3 12 -19 16 -35 4 -17 10 -30 15 -30 4 0 16 -27 26 -60 11 -33 22 -60 27 -60
4 0 7 -9 7 -19 0 -11 4 -22 9 -25 5 -3 12 -22 16 -42 3 -20 10 -44 15 -53 13
-25 40 -121 40 -142 0 -10 4 -20 9 -23 5 -3 11 -20 14 -38 4 -18 13 -69 22
-113 9 -44 20 -107 25 -140 5 -33 14 -84 19 -113 19 -95 51 -88 -431 -96 -388
-5 -739 1 -752 15 -3 3 110 237 252 520 141 283 295 591 341 686 96 197 92
195 157 84z m-4886 -5 c0 -6 31 -72 69 -146 37 -74 85 -169 105 -210 21 -41
44 -86 51 -100 8 -14 54 -104 102 -200 48 -96 90 -177 93 -180 11 -10 40 -72
40 -85 0 -7 3 -15 8 -17 9 -4 182 -352 182 -366 0 -20 -25 -27 -90 -28 -393
-4 -1052 -4 -1060 1 -22 14 26 341 80 550 65 250 206 575 344 794 l28 43 24
-23 c13 -12 24 -27 24 -33z m3908 -113 l232 -6 0 -27 c0 -15 -8 -38 -18 -51
-10 -13 -27 -45 -38 -71 -10 -27 -22 -48 -26 -48 -5 0 -8 -6 -8 -14 0 -8 -13
-41 -29 -73 -57 -114 -101 -210 -101 -222 0 -6 -4 -11 -8 -11 -4 0 -16 -22
-27 -50 -11 -27 -23 -50 -27 -50 -4 0 -8 -5 -8 -11 0 -13 -31 -82 -40 -89 -3
-3 -14 -27 -24 -53 -10 -27 -51 -114 -92 -195 -41 -81 -74 -151 -74 -155 0 -5
-9 -21 -20 -36 l-19 -28 -443 -9 c-614 -12 -1957 -11 -1986 2 -17 7 -96 157
-317 599 -162 324 -292 591 -290 594 18 17 2784 21 3363 4z m1403 -1654 c15
-15 19 -29 15 -47 -3 -15 -11 -70 -17 -122 -6 -52 -14 -102 -17 -110 -5 -15
-25 -122 -38 -208 -4 -23 -11 -45 -15 -48 -5 -3 -9 -13 -9 -23 0 -17 -23 -101
-40 -146 -4 -11 -15 -47 -25 -80 -10 -33 -22 -64 -26 -70 -3 -5 -10 -21 -14
-35 -9 -28 -50 -125 -65 -152 -6 -10 -10 -24 -10 -32 0 -8 -3 -16 -7 -18 -5
-1 -28 -43 -53 -93 -24 -49 -48 -91 -52 -93 -5 -2 -8 -9 -8 -16 0 -7 -18 -38
-40 -70 -22 -31 -40 -61 -40 -66 0 -6 -4 -10 -10 -10 -5 0 -10 -6 -10 -12 0
-7 -13 -27 -28 -45 -15 -17 -43 -54 -63 -82 -88 -121 -371 -415 -474 -491 -33
-25 -69 -53 -80 -64 -11 -10 -38 -30 -60 -45 -22 -14 -64 -44 -94 -66 -89 -65
-148 -100 -301 -175 -80 -40 -154 -76 -165 -81 -11 -4 -41 -17 -67 -28 -26
-12 -52 -21 -58 -21 -5 0 -18 -4 -28 -10 -24 -13 -129 -47 -175 -55 -20 -4
-39 -11 -42 -15 -3 -5 -24 -11 -48 -15 -23 -3 -51 -10 -62 -15 -11 -5 -51 -14
-90 -19 -38 -6 -101 -15 -140 -21 -193 -28 -227 -32 -260 -26 -19 4 -35 11
-35 15 0 4 194 399 431 877 412 830 530 1069 785 1592 l114 232 117 1 c140 1
1252 25 1271 27 6 1 21 -7 33 -19z m-1961 -33 c0 -19 -4 -38 -10 -41 -5 -3
-17 -23 -26 -43 -9 -20 -41 -87 -70 -148 -30 -61 -54 -116 -54 -122 0 -6 -3
-12 -8 -14 -11 -5 -142 -278 -142 -297 0 -6 -4 -11 -8 -11 -4 0 -16 -22 -27
-50 -11 -27 -22 -50 -25 -50 -3 0 -14 -22 -25 -50 -11 -27 -23 -50 -27 -50 -4
0 -8 -6 -8 -13 0 -7 -18 -50 -40 -95 -22 -44 -40 -86 -40 -92 0 -5 -4 -10 -8
-10 -4 0 -16 -22 -27 -50 -11 -27 -22 -50 -25 -50 -3 0 -14 -22 -25 -50 -11
-27 -23 -50 -27 -50 -4 0 -8 -5 -8 -11 0 -10 -22 -61 -73 -169 -7 -14 -14 -27
-17 -30 -3 -3 -14 -25 -25 -50 -11 -25 -22 -47 -25 -50 -4 -3 -15 -26 -26 -52
-10 -27 -22 -48 -26 -48 -5 0 -8 -8 -8 -17 0 -10 -8 -31 -17 -48 -54 -99 -82
-158 -88 -185 -9 -41 -43 -60 -62 -34 -14 18 -481 955 -716 1434 -238 486
-267 551 -254 562 2 3 983 12 1585 16 l382 2 0 -34z m-2453 -11 c11 -8 50 -72
84 -142 35 -70 66 -130 69 -133 3 -3 14 -23 24 -45 9 -22 21 -48 26 -57 21
-38 29 -54 46 -88 9 -19 46 -91 81 -160 34 -69 63 -130 63 -137 0 -6 4 -13 8
-15 4 -1 39 -66 77 -143 39 -77 72 -142 75 -145 3 -3 22 -41 44 -85 21 -44 52
-109 70 -145 17 -36 34 -66 39 -68 4 -2 7 -10 7 -17 0 -13 29 -75 40 -85 3 -3
14 -25 25 -50 11 -25 22 -47 25 -50 3 -3 14 -25 25 -50 11 -25 22 -47 25 -50
3 -3 13 -22 23 -42 9 -21 25 -55 34 -75 10 -21 25 -49 34 -63 9 -14 20 -36 24
-50 4 -14 15 -36 24 -50 10 -14 26 -45 36 -70 11 -25 22 -47 25 -50 3 -3 14
-25 25 -50 11 -25 22 -47 25 -50 4 -3 15 -26 26 -52 10 -27 22 -48 27 -48 4 0
7 -6 7 -12 0 -15 156 -328 171 -342 5 -6 9 -20 9 -33 0 -27 -40 -41 -75 -25
-13 6 -67 14 -121 18 -55 3 -103 10 -109 14 -5 4 -39 11 -75 15 -36 4 -69 11
-75 15 -5 4 -36 11 -67 14 -32 4 -60 11 -63 16 -2 4 -25 11 -50 14 -24 4 -47
11 -50 15 -2 5 -24 11 -47 15 -36 6 -166 52 -243 86 -141 62 -210 96 -300 147
-22 12 -47 26 -55 30 -26 12 -239 159 -267 184 -15 13 -40 32 -55 42 -72 46
-222 189 -389 370 -66 72 -229 288 -229 304 0 6 -3 13 -7 15 -31 13 -236 403
-268 508 -4 14 -16 43 -25 65 -64 145 -152 514 -175 735 -6 54 -5 56 22 68 44
18 1350 5 1380 -13z"/>
</g>
</svg>
